# Blender v2.77 (sub 0) OBJ File: ''
# www.blender.org
mtllib laser.mtl
o Cube
v 0.733072 0.733072 10.755074
v -0.733072 0.733072 10.755074
v -0.733072 -0.733072 10.755074
v 0.733073 -0.733072 10.755074
v 0.999999 1.000000 -1.000000
v -1.000001 0.999999 -1.000000
v -1.000000 -1.000000 -1.000000
v 1.000000 -1.000000 -1.000000
v 0.000502 0.000502 -4.521585
vt 0.7500 0.9279
vt 1.0000 0.9279
vt 0.8749 0.9857
vt 0.5334 0.0000
vt 0.7166 0.0000
vt 0.5000 0.9279
vt 0.2834 0.0000
vt 0.4666 0.0000
vt 0.2500 0.9279
vt 0.0334 0.0000
vt 0.2166 0.0000
vt 0.7834 0.0000
vt 0.3751 0.9857
vt 0.6251 0.9857
vt 0.1249 0.9857
vt -0.0000 0.9279
vt 0.9666 0.0000
vn 0.9620 0.0000 -0.2730
vn 0.0000 0.9997 0.0227
vn -0.9997 -0.0000 0.0227
vn 0.0000 -0.9997 0.0227
vn 0.9997 0.0000 0.0227
vn -0.9619 -0.0000 -0.2733
vn -0.0000 0.9620 -0.2730
vn 0.0000 -0.9619 -0.2733
usemtl Material
s off
f 5/1/1 8/2/1 9/3/1
f 5/1/2 2/4/2 1/5/2
f 6/6/3 3/7/3 2/8/3
f 7/9/4 4/10/4 3/11/4
f 1/12/5 8/2/5 5/1/5
f 7/9/6 6/6/6 9/13/6
f 9/14/7 6/6/7 5/1/7
f 9/15/8 8/16/8 7/9/8
f 5/1/2 6/6/2 2/4/2
f 6/6/3 7/9/3 3/7/3
f 7/9/4 8/16/4 4/10/4
f 1/12/5 4/17/5 8/2/5
